# xmcd
#
# Track frame offsets: 
#        150
#        28557
#        52180
#        77612
#        103262
#        125190
#        148882
#        164935
#        187957
#        205570
#        224822
#        253610
#        277795
#        301955
#
# Disc length: 4284 seconds
#
# Revision: 9
# Processed by: cddbd v1.5.2PL0 Copyright (c) Steve Scherf et al.
# Submitted via: ExactAudioCopy v1.0b3
#
DISCID=d910ba0e
DTITLE=徳永英明 - INTRO. II
DYEAR=1992
DGENRE=JPop
TTITLE0=最後の言い訳
TTITLE1=Wednesday Moon
TTITLE2=MYKONOS(ReMix)
TTITLE3=I Love You
TTITLE4=夢を信じて(ReMix)
TTITLE5=壊れかけのRadio(ReMix)
TTITLE6=Dear...(NewRec&ReMix)
TTITLE7=LOVE IS ALL
TTITLE8=夢の続き
TTITLE9=眠れない夜(ReMix)
TTITLE10=Revolution
TTITLE11=恋の行方
TTITLE12=君の青(ReMix)
TTITLE13=レイニー ブルー(NewRec&ReMix)
EXTD=YEAR: 1992
EXTT0=
EXTT1=
EXTT2=
EXTT3=
EXTT4=
EXTT5=
EXTT6=
EXTT7=
EXTT8=
EXTT9=
EXTT10=
EXTT11=
EXTT12=
EXTT13=
PLAYORDER=
